# AST/ASF file generated using VICON BodyLanguage
# -----------------------------------------------
:version 1.10
:name VICON
:units
  mass 1.0
  length 0.45
  angle deg
:documentation
   .ast/.asf automatically generated from VICON data using
   VICON BodyBuilder and BodyLanguage model FoxedUp or BRILLIANT.MOD
:root
   order TX TY TZ RX RY RZ
   axis XYZ
   position 0 0 0  
   orientation 0 -0 0 
:bonedata
  begin
     id 1 
     name lhipjoint
     direction 0.432694 -0.693742 0.575759 
     length 2.19277 
     axis 0 -0 0  XYZ
  end
  begin
     id 2 
     name lfemur
     direction 0.34202 -0.939693 0  
     length 6.69022  
     axis 0 -0 20  XYZ
    dof rx ry rz
    limits (-160.0 20.0)
           (-70.0 70.0)
           (-60.0 70.0)
  end
  begin
     id 3 
     name ltibia
     direction 0.34202 -0.939693 0   
     length 6.50337   
     axis 0 -0 20   XYZ
    dof rx
    limits (-10.0 170.0)
  end
  begin
     id 4 
     name lfoot
     direction 0.158999 -0.435969 0.885805   
     length 2.70564   
     axis -90 -1.13533e-015 20   XYZ
    dof rx rz
    limits (-45.0 90.0)
           (-70.0 20.0)
  end
  begin
     id 5 
     name ltoes
     direction -0.00592919 0.00964381 0.999936   
     length 1.29929   
     axis -90 -1.13533e-015 20   XYZ
    dof rx
    limits (-90.0 20.0)
  end
  begin
     id 6 
     name rhipjoint
     direction -0.414359 -0.700339 0.581234   
     length 2.17212  
     axis 0 -0 0  XYZ 
  end
  begin
     id 7 
     name rfemur
     direction -0.34202 -0.939693 0   
     length 7.17659   
     axis 0 -0 -20   XYZ
    dof rx ry rz
    limits (-160.0 20.0)
           (-70.0 70.0)
           (-70.0 60.0)
  end
  begin
     id 8 
     name rtibia
     direction -0.34202 -0.939693 0   
     length 6.36669   
     axis 0 -0 -20   XYZ
    dof rx
    limits (-10.0 170.0)
 end
 begin
     id 9 
     name rfoot
     direction -0.137064 -0.37658 0.916188   
     length 2.22351  
     axis -90 1.13533e-015 -20   XYZ
    dof rx rz
    limits (-45.0 90.0)
           (-20.0 70.0)
  end
  begin
     id 10 
     name rtoes
     direction -0.000784077 -0.00289101 0.999996   
     length 1.09522   
     axis -90 1.13533e-015 -20   XYZ
    dof rx
    limits (-90.0 20.0)
  end
  begin
     id 11 
     name lowerback
     direction -0.0176242 0.984912 -0.172157   
     length 1.65301   
     axis 0 -0 0   XYZ
    dof rx ry rz
    limits (-20.0 45.0)
           (-30.0 30.0)
           (-30.0 30.0)
  end
  begin
     id 12 
     name upperback
     direction -0.00218128 0.998776 -0.0494072   
     length 1.67776   
     axis 0 -0 0   XYZ
    dof rx ry rz
    limits (-20.0 45.0)
           (-30.0 30.0)
           (-30.0 30.0)
  end
  begin
     id 13 
     name thorax
     direction 0.00544186 0.999658 0.0255711   
     length 1.72293   
     axis 0 -0 0   XYZ
    dof rx ry rz
    limits (-20.0 45.0)
           (-30.0 30.0)
           (-30.0 30.0)
  end
  begin
     id 14 
     name lowerneck
     direction -0.105325 0.983841 0.144785   
     length 2.14226   
     axis 0 -0 0   XYZ
    dof rx ry rz
    limits (-20.0 45.0)
           (-30.0 30.0)
           (-30.0 30.0)
  end
  begin
     id 15 
     name upperneck
     direction 0.0547957 0.988053 -0.144041   
     length 2.17508   
     axis 0 -0 0   XYZ
    dof rx ry rz
    limits (-20.0 45.0)
           (-30.0 30.0)
           (-30.0 30.0)
  end
  begin
     id 16
     name head
     direction 0.0247488 0.997534 -0.0656813  
     length 2.20048  
     axis 0 -0 0   XYZ
    dof rx ry rz
    limits (-20.0 45.0)
           (-30.0 30.0)
           (-30.0 30.0)
  end
  begin
     id 17 
     name lclavicle
     direction 0.820559 0.567247 -0.0701026  
     length 4.09615  
     axis 0 -0 0   XYZ
    dof ry rz
    limits (-20.0 10.0)
           (0.0 20.0)
  end
  begin
     id 18 
     name lhumerus
     direction 0.999977 -0.0067566 -9.96392e-005   
     length 4.59333   
     axis -180 -30 -90   XYZ
    dof rx ry rz
    limits (-60.0 90.0)
           (-90.0 90.0)
           (-90.0 90.0)
  end
  begin
     id 19
     name lradius
     direction 1 -4.48982e-011 -2.53425e-027   
     length 2.81151   
     axis -180 -30 -90   XYZ
    dof rx
    limits (-10.0 170.0)
  end
  begin
     id 20
     name lwrist
     direction 1 -4.48939e-011 -7.39254e-028   
     length 1.40576   
     axis 2.56395e-016 90 90   XYZ
    dof ry
    limits (-180.0 0.0)
 end
  begin
     id 21 
     name lhand
     direction 1 -4.48939e-011 -1.47851e-027   
     length 0.895651   
     axis 9.43423e-016 90 90   XYZ
    dof rx rz
    limits (-90.0 90.0)
           (-45.0 45.0)
  end
  begin
     id 22 
     name lfingers
     direction 1 -4.48978e-011 -2.95702e-027   
     length 0.722097   
     axis 1.88685e-015 90 90   XYZ
    dof rx
    limits (0.0 90.0)
  end
  begin
     id 23
     name lthumb
     direction 0.707107 -6.34931e-011 0.707107   
     length 1.03679   
     axis -90 45 -9.86935e-015   XYZ
    dof rx rz
    limits (-45.0 45.0)
           (-45.0 45.0)
  end
  begin
     id 24 
     name rclavicle
     direction -0.831414 0.553102 -0.0531864   
     length 4.24872  
     axis 0 -0 0   XYZ 
    dof ry rz
    limits (-10.0 20.0)
           (-20.0 0.0)
  end
  begin
     id 25 
     name rhumerus
     direction -0.999916 -0.000939607 0.0129331  
     length 4.74834   
     axis -180 30 90   XYZ
    dof rx ry rz
    limits (-90.0 60.0)
           (-90.0 90.0)
           (-90.0 90.0)
  end
  begin
     id 26 
     name rradius
     direction -1 -4.48956e-011 -1.31752e-027   
     length 2.79907   
     axis -180 30 90   XYZ
    dof rx
    limits (-10.0 170.0)
  end
  begin
     id 27 
     name rwrist
     direction -1 -4.4897e-011 -7.39254e-028   
     length 1.39954   
     axis 2.56395e-016 -90 -90   XYZ
    dof ry
    limits (-180.0 0.0)
  end
  begin
     id 28
     name rhand
     direction -0.999997 -0.00250697 0.000800838   
     length 0.953304   
     axis 9.43423e-016 -90 -90   XYZ
    dof rx rz
    limits (-90.0 90.0)
           (-45.0 45.0)
  end
  begin
     id 29
     name rfingers
     direction -1 -4.48954e-011 -2.95702e-027   
     length 0.763342   
     axis 1.88685e-015 -90 -90   XYZ
    dof rx
    limits (0.0 90.0)
  end
  begin
     id 30
     name rthumb
     direction -0.709701 -0.00217037 0.7045   
     length 1.10115   
     axis -90 -45 9.86935e-015   XYZ
    dof rx rz
    limits (-45.0 45.0)
           (-45.0 45.0)
  end
:hierarchy
  begin
    root lhipjoint rhipjoint lowerback
    lhipjoint lfemur
    lfemur ltibia
    ltibia lfoot
    lfoot ltoes
    rhipjoint rfemur
    rfemur rtibia
    rtibia rfoot
    rfoot rtoes
    lowerback upperback
    upperback thorax
    thorax lowerneck lclavicle rclavicle
    lowerneck upperneck
    upperneck head
    lclavicle lhumerus
    lhumerus lradius
    lradius lwrist
    lwrist lhand lthumb
    lhand lfingers
    rclavicle rhumerus
    rhumerus rradius
    rradius rwrist
    rwrist rhand rthumb
    rhand rfingers
  end

#!OML:ASF G:\ViconDB\ViconDB\414\test\team2\shane.ASF
:FULLY-SPECIFIED
:DEGREES
131
root 7.73762 16.2854 -1.73657 -5.22174 -15.2167 -6.49148
lowerback 10.8364 -0.906199 2.6566
upperback 5.22102 -0.948552 2.12476
thorax -0.640472 -0.472141 0.811596
lowerneck -20.9742 7.32789 -2.1386
upperneck 13.5235 10.6263 -0.44235
head 7.47438 4.90336 1.48481
rclavicle 1.3977e-014 -2.71341e-014
rhumerus -35.9372 10.4254 -86.1478
rradius 57.3143
rwrist 29.1503
rhand -34.0642 -15.9
rfingers 7.12502
rthumb -7.24149 -45.7561
lclavicle 1.3977e-014 -2.71341e-014
lhumerus -26.7345 -24.9656 86.2
lradius 45.7558
lwrist -16.8056
lhand -38.4465 1.62117
lfingers 7.12502
lthumb -11.4699 31.2874
rfemur 12.2313 -5.65452 7.83382
rtibia 53.8301
rfoot 0.721476 -10.082
rtoes -9.82481
lfemur -5.43822 12.7199 -12.5354
ltibia 42.0226
lfoot -30.8794 -8.35616
ltoes -5.82587
132
root 7.75541 16.298 -1.58755 -5.79737 -14.473 -6.47396
lowerback 10.9673 -1.14056 2.89358
upperback 5.25243 -1.23228 1.98745
thorax -0.687469 -0.608178 0.570783
lowerneck -20.8992 7.36675 -1.9561
upperneck 13.6775 10.6971 -0.793583
head 7.54456 4.90592 1.35545
rclavicle 2.61402e-014 -7.85199e-015
rhumerus -35.635 8.94534 -85.6468
rradius 55.7146
rwrist 29.8671
rhand -34.0022 -17.7549
rfingers 7.12502
rthumb -7.18165 -47.613
lclavicle 2.61402e-014 -7.85199e-015
lhumerus -25.5909 -25.4863 86.651
lradius 44.8731
lwrist -17.8653
lhand -37.97 1.04614
lfingers 7.12502
lthumb -11.0104 30.7374
rfemur 10.9599 -6.18269 8.30541
rtibia 55.8622
rfoot -0.785376 -10.0634
rtoes -10.6732
lfemur -3.94248 12.229 -12.6219
ltibia 41.188
lfoot -30.9254 -8.70065
ltoes -6.11256
133
root 7.7684 16.3163 -1.43476 -6.28387 -13.5317 -6.5838
lowerback 10.9545 -1.42794 3.11492
upperback 5.33405 -1.59387 1.98546
thorax -0.604351 -0.783647 0.484697
lowerneck -20.9901 7.39742 -2.00495
upperneck 13.9486 10.8069 -0.999581
head 7.65981 4.92403 1.322
rclavicle 1.40889e-014 -1.0138e-014
rhumerus -35.4715 8.17828 -85.2932
rradius 54.2276
rwrist 29.2748
rhand -34.2812 -19.5278
rfingers 7.12502
rthumb -7.45104 -49.3766
lclavicle 1.40889e-014 -1.0138e-014
lhumerus -24.4617 -26.1813 87.3686
lradius 44.267
lwrist -18.7346
lhand -37.4653 0.848187
lfingers 7.12502
lthumb -10.5235 30.5648
rfemur 9.65195 -7.01071 8.92156
rtibia 57.6202
rfoot -2.14331 -9.8818
rtoes -11.6714
lfemur -2.54585 11.6329 -12.5885
ltibia 40.3444
lfoot -30.9135 -9.02318
ltoes -6.38973
134
root 7.77466 16.3411 -1.29063 -6.59326 -12.4331 -6.64582
lowerback 11.0474 -1.73273 2.97784
upperback 5.24749 -1.99932 2.09864
thorax -0.742218 -0.990792 0.729507
lowerneck -21.0865 7.39542 -2.18992
upperneck 14.3855 10.8966 -1.07079
head 7.81622 4.93343 1.35513
rclavicle 2.24875e-015 -2.48481e-015
rhumerus -35.4124 8.06672 -84.9905
rradius 52.493
rwrist 28.3749
rhand -34.4501 -21.1122
rfingers 7.12502
rthumb -7.61404 -50.9551
lclavicle 2.24875e-015 -2.48481e-015
lhumerus -23.5297 -27.1041 88.5295
lradius 43.8126
lwrist -18.8486
lhand -37.0763 0.924812
lfingers 7.12502
lthumb -10.1482 30.6601
rfemur 8.17326 -7.67919 9.68948
rtibia 59.129
rfoot -3.94774 -9.71125
rtoes -12.0737
lfemur -1.40126 10.9585 -12.633
ltibia 39.4838
lfoot -30.8085 -9.41738
ltoes -6.51084
135
root 7.77391 16.3588 -1.14502 -7.01112 -11.4806 -6.70787
lowerback 11.2217 -1.91345 2.8805
upperback 5.1979 -2.23544 2.15452
thorax -0.884874 -1.11158 0.876615
lowerneck -21.165 7.28619 -2.38241
upperneck 14.7576 10.8177 -1.02438
head 7.94205 4.87665 1.40401
rclavicle 1.6437e-014 -2.36554e-014
rhumerus -35.8288 7.83007 -84.738
rradius 51.2626
rwrist 27.0325
rhand -35.1481 -22.2564
rfingers 7.12502
rthumb -8.28771 -52.0739
lclavicle 1.6437e-014 -2.36554e-014
lhumerus -22.6435 -28.5132 89.6898
lradius 43.378
lwrist -19.1275
lhand -36.6868 1.12105
lfingers 7.12502
lthumb -9.77252 30.8743
rfemur 6.85846 -8.1372 10.4808
rtibia 60.3469
rfoot -5.84162 -9.49013
rtoes -11.3559
lfemur -0.105349 10.3911 -12.5895
ltibia 38.6373
lfoot -30.7503 -9.94839
ltoes -6.59835
